<svg width="15.126404" height="13.500000" viewBox="0 0 15.1264 13.5" fill="none" xmlns="http://www.w3.org/2000/svg" xmlns:xlink="http://www.w3.org/1999/xlink">
	<desc>
			Created with Pixso.
	</desc>
	<defs/>
	<path id="Vector" d="M6.18 12.37C6.18 12.99 5.68 13.5 5.06 13.5C4.44 13.5 3.93 12.99 3.93 12.37C3.93 11.75 4.44 11.25 5.06 11.25C5.68 11.25 6.18 11.75 6.18 12.37Z" fill="#272727" fill-opacity="1.000000" fill-rule="evenodd"/>
	<path id="Vector" d="M14.06 12.37C14.06 12.99 13.55 13.5 12.93 13.5C12.31 13.5 11.81 12.99 11.81 12.37C11.81 11.75 12.31 11.25 12.93 11.25C13.55 11.25 14.06 11.75 14.06 12.37Z" fill="#272727" fill-opacity="1.000000" fill-rule="evenodd"/>
	<path id="Vector" d="M14.93 1.99C14.85 1.89 14.75 1.82 14.64 1.76C14.53 1.71 14.4 1.68 14.28 1.68L3.58 1.68L3.36 0.46C3.34 0.33 3.27 0.21 3.17 0.13C3.07 0.04 2.94 0 2.81 0L0.56 0C0.41 0 0.27 0.05 0.16 0.16C0.05 0.27 0 0.41 0 0.56C0 0.71 0.05 0.85 0.16 0.96C0.27 1.06 0.41 1.12 0.56 1.12L2.34 1.12L3.94 10.22C3.96 10.35 4.03 10.47 4.13 10.55C4.23 10.64 4.36 10.68 4.5 10.68L13.5 10.68C13.64 10.68 13.79 10.62 13.89 10.52C14 10.41 14.06 10.27 14.06 10.12C14.06 9.97 14 9.83 13.89 9.72C13.79 9.62 13.64 9.56 13.5 9.56L4.97 9.56L4.77 8.43L13.26 8.43C13.46 8.43 13.65 8.36 13.8 8.24C13.95 8.12 14.05 7.95 14.09 7.75L15.11 2.69C15.13 2.57 15.13 2.44 15.1 2.32C15.07 2.2 15.01 2.09 14.93 1.99Z" fill="#272727" fill-opacity="1.000000" fill-rule="nonzero"/>
</svg>
