<svg width="24.680054" height="26.999268" viewBox="0 0 24.6801 26.9993" fill="none" xmlns="http://www.w3.org/2000/svg" xmlns:xlink="http://www.w3.org/1999/xlink">
	<desc>
			Created with Pixso.
	</desc>
	<defs/>
	<path id="Vector" d="M3.83 25.99C2.26 25.99 1 24.75 1 23.22C1 21.68 2.26 20.44 3.83 20.44C5.4 20.44 6.67 21.68 6.67 23.22C6.67 24.75 5.4 25.99 3.83 25.99Z" stroke="currentColor" stroke-opacity="1.000000" stroke-width="2.000000" stroke-linejoin="round"/>
	<path id="Vector" d="M19.42 25.99C17.86 25.99 16.59 24.75 16.59 23.22C16.59 21.68 17.86 20.44 19.42 20.44C20.99 20.44 22.26 21.68 22.26 23.22C22.26 24.75 20.99 25.99 19.42 25.99Z" stroke="currentColor" stroke-opacity="1.000000" stroke-width="2.000000" stroke-linejoin="round"/>
	<path id="Vector" d="M19.42 20.44L3.83 20.44L3.83 1L1 1" stroke="currentColor" stroke-opacity="1.000000" stroke-width="2.000000" stroke-linejoin="round" stroke-linecap="round"/>
	<path id="Vector" d="M3.83 3.77L23.68 5.16L22.26 14.88L3.83 14.88" stroke="currentColor" stroke-opacity="1.000000" stroke-width="2.000000" stroke-linejoin="round" stroke-linecap="round"/>
</svg>
