<svg xmlns="http://www.w3.org/2000/svg"  viewBox="0 0 50 50" width="50px" height="50px"><path d="M 25 2 C 12.317 2 2 12.317 2 25 C 2 37.683 12.317 48 25 48 C 37.683 48 48 37.683 48 25 C 48 12.317 37.683 2 25 2 z M 25 4 C 36.579 4 46 13.421 46 25 C 46 36.579 36.579 46 25 46 C 13.421 46 4 36.579 4 25 C 4 13.421 13.421 4 25 4 z M 24.947266 8.7460938 C 24.745266 8.7460938 24.541938 8.7498594 24.335938 8.7558594 C 15.867938 9.0198594 10.200375 15.489422 10.234375 24.857422 C 10.269375 34.422422 16.086109 40.507234 25.412109 40.740234 C 25.516109 40.742234 25.620609 40.744141 25.724609 40.744141 C 32.681609 40.743141 38.815313 34.979859 39.195312 28.005859 L 39.253906 26.949219 L 38.197266 26.949219 C 35.925266 26.949219 30.439453 27.001953 30.439453 27.001953 L 29.511719 27.009766 L 29.449219 27.935547 C 29.398219 28.702547 29.291703 29.551047 29.220703 29.748047 C 28.481703 31.576047 27.184969 32.353531 25.042969 32.269531 C 23.029969 32.190531 21.67625 31.161047 20.90625 29.123047 C 19.87625 26.398047 19.814656 23.573562 20.722656 20.726562 C 21.575656 18.047563 23.474234 16.843187 26.240234 17.242188 C 27.735234 17.459187 28.843047 18.784875 29.623047 21.296875 L 29.84375 22 L 39.298828 22 L 39.232422 20.9375 C 38.786422 13.6885 32.948266 8.7460938 24.947266 8.7460938 z M 24.935547 10.744141 C 31.425547 10.744141 36.259094 14.448047 37.121094 19.998047 L 31.296875 19.998047 C 30.262875 17.162047 28.660344 15.570672 26.527344 15.263672 C 22.786344 14.721672 19.973406 16.490188 18.816406 20.117188 C 17.769406 23.404187 17.842156 26.672125 19.035156 29.828125 C 20.091156 32.620125 22.140844 34.154625 24.964844 34.265625 C 27.974844 34.375625 30.015266 33.115094 31.072266 30.496094 C 31.210266 30.156094 31.302281 29.544188 31.363281 28.992188 C 32.709281 28.980187 35.267891 28.958172 37.087891 28.951172 C 36.243891 34.405172 31.295563 38.744141 25.726562 38.744141 C 25.638562 38.744141 25.549938 38.743234 25.460938 38.740234 C 17.210938 38.535234 12.266375 33.342656 12.234375 24.847656 C 12.204375 16.516656 16.977484 10.985906 24.396484 10.753906 C 24.577484 10.748906 24.756547 10.744141 24.935547 10.744141 z"/></svg>