<svg width="27.466339" height="26.951782" viewBox="0 0 27.4663 26.9518" fill="none" xmlns="http://www.w3.org/2000/svg" xmlns:xlink="http://www.w3.org/1999/xlink">
	<desc>
			Created with Pixso.
	</desc>
	<defs/>
	<path id="Vector" d="M25.9 13.91C26.26 14.31 26.46 14.82 26.46 15.35C26.46 15.88 26.26 16.39 25.9 16.79L17.11 25.4C16.71 25.75 16.19 25.95 15.65 25.95C15.11 25.95 14.58 25.75 14.18 25.4L1 12.48L1 6.74C1 5.21 1.61 3.75 2.71 2.68C3.81 1.6 5.3 1 6.86 1L12.72 1L25.9 13.91Z" stroke="#72AEC8" stroke-opacity="1.000000" stroke-width="2.000000" stroke-linejoin="round"/>
	<path id="Vector" d="M9.79 12.48C8.17 12.48 6.86 11.19 6.86 9.61C6.86 8.02 8.17 6.74 9.79 6.74C11.4 6.74 12.72 8.02 12.72 9.61C12.72 11.19 11.4 12.48 9.79 12.48Z" stroke="#72AEC8" stroke-opacity="1.000000" stroke-width="2.000000" stroke-linejoin="round"/>
</svg>
