<svg width="60.000000" height="8.493652" viewBox="0 0 60 8.49365" fill="none" xmlns="http://www.w3.org/2000/svg" xmlns:xlink="http://www.w3.org/1999/xlink">
	<desc>
			Created with Pixso.
	</desc>
	<defs/>
	<path id="Vector" d="M22.31 8.48L27.81 8.48L29.9 5.65L24.4 5.65L22.31 8.48ZM0 6.76L0 7.36L7.66 7.36L8.1 6.76L0 6.76ZM16.2 5.65C15.39 5.65 15.64 5.31 15.77 5.13C16.04 4.78 16.49 4.16 16.75 3.81C17.01 3.46 17.01 3.26 16.49 3.26L11.7 3.26L7.85 8.49L17.24 8.49C20.34 8.49 22.06 6.38 22.6 5.65L16.2 5.65ZM45.97 5L49.65 0L43.82 0L40.14 5L45.97 5ZM8.93 5.65L0 5.65L0 6.25L8.49 6.25L8.93 5.65ZM19.34 3.15C19.07 3.51 18.63 4.13 18.37 4.49C18.24 4.67 17.99 5 18.8 5L23.08 5C23.08 5 23.76 4.06 24.34 3.28C25.13 2.21 24.41 0 21.6 0L10.55 0L8.64 2.6L19.08 2.6C19.61 2.6 19.6 2.81 19.34 3.15ZM0 8.48L6.85 8.48L7.29 7.88L0 7.88L0 8.48ZM30.28 8.48L35.78 8.48L37.87 5.65L32.37 5.65C32.36 5.65 30.28 8.48 30.28 8.48ZM51.09 8.49L60 8.49L60 7.89L51.53 7.89L51.09 8.49ZM53.18 5.65L52.74 6.25L60 6.25L60 5.65L53.18 5.65ZM51.91 7.36L60 7.36L60 6.76L52.35 6.76L51.91 7.36ZM36.52 0L34.41 2.86L31.95 2.86L34.06 0L28.56 0L24.88 5L38.34 5L42.02 0L36.52 0ZM39.66 5.65C39.66 5.65 39.26 6.2 39.06 6.46C38.37 7.4 38.98 8.49 41.24 8.49L50.08 8.49L52.17 5.65L39.66 5.65Z" fill="currentColor" fill-opacity="1.000000" fill-rule="nonzero"/>
</svg>
