<svg width="24.000000" height="24.000000" viewBox="0 0 24 24" fill="none" xmlns="http://www.w3.org/2000/svg" xmlns:xlink="http://www.w3.org/1999/xlink">
	<desc>
			Created with Pixso.
	</desc>
	<defs>
		<clipPath id="clip2830_7854">
			<rect rx="0.000000" width="23.000000" height="23.000000" transform="translate(0.500000 0.500000)" fill="white" fill-opacity="0"/>
		</clipPath>
	</defs>
	<g clip-path="url(#clip2830_7854)">
		<path d="M11.75 5C8.45 5 5.34 6.26 2.64 8.51C2.21 8.87 1.58 8.81 1.23 8.39C0.87 7.96 0.93 7.33 1.35 6.98C4.36 4.47 7.92 3 11.75 3C15.57 3 19.13 4.47 22.14 6.98C22.56 7.33 22.62 7.96 22.26 8.39C21.91 8.81 21.28 8.87 20.85 8.51C18.15 6.26 15.04 5 11.75 5ZM11.37 6.75C8.46 6.75 5.89 8.16 4.1 9.68C3.19 10.45 2.45 11.26 1.92 12C1.66 12.36 1.44 12.72 1.28 13.05C1.14 13.35 1 13.73 1 14.12C1 14.51 1.14 14.89 1.28 15.19C1.44 15.52 1.66 15.88 1.92 16.25C2.45 16.98 3.19 17.79 4.1 18.56C5.89 20.08 8.46 21.5 11.37 21.5C14.28 21.5 16.85 20.08 18.64 18.56C19.55 17.79 20.29 16.98 20.82 16.25C21.08 15.88 21.3 15.52 21.46 15.19C21.6 14.89 21.75 14.51 21.75 14.12C21.75 13.73 21.6 13.35 21.46 13.05C21.3 12.72 21.08 12.36 20.82 12C20.29 11.26 19.55 10.45 18.64 9.68C16.85 8.16 14.28 6.75 11.37 6.75ZM11.37 8.75C9.64 8.75 8.25 10.14 8.25 11.87C8.25 13.6 9.64 15 11.37 15C13.1 15 14.5 13.6 14.5 11.87C14.5 10.14 13.1 8.75 11.37 8.75ZM3.09 14.33C3.04 14.22 3.01 14.15 3 14.12C3.01 14.09 3.04 14.02 3.09 13.91C3.18 13.71 3.33 13.46 3.54 13.16C3.97 12.58 4.6 11.88 5.39 11.21C5.72 10.93 6.08 10.66 6.46 10.4C6.32 10.87 6.25 11.36 6.25 11.87C6.25 14.7 8.54 17 11.37 17C14.2 17 16.5 14.7 16.5 11.87C16.5 11.36 16.42 10.87 16.28 10.4C16.66 10.66 17.02 10.93 17.35 11.21C18.14 11.88 18.77 12.58 19.2 13.16C19.41 13.46 19.56 13.71 19.65 13.91C19.7 14.02 19.73 14.09 19.74 14.12C19.73 14.15 19.7 14.22 19.65 14.33C19.56 14.53 19.41 14.78 19.2 15.08C18.77 15.66 18.14 16.36 17.35 17.03C15.76 18.37 13.64 19.5 11.37 19.5C9.1 19.5 6.98 18.37 5.39 17.03C4.6 16.36 3.97 15.66 3.54 15.08C3.33 14.78 3.18 14.53 3.09 14.33Z" fill="currentColor" fill-opacity="1.000000" fill-rule="evenodd"/>
	</g>
</svg>
