<svg width="24.000000" height="24.000000" viewBox="0 0 24 24" fill="none" xmlns="http://www.w3.org/2000/svg" xmlns:xlink="http://www.w3.org/1999/xlink">
	<desc>
			Created with Pixso.
	</desc>
	<defs>
		<clipPath id="clip2830_7733">
			<rect id="Google" rx="0.000000" width="23.000000" height="23.000000" transform="translate(0.500000 0.500000)" fill="white" fill-opacity="0"/>
		</clipPath>
	</defs>
	<g clip-path="url(#clip2830_7733)">
		<path id="Vector" d="M12.21 10.5L22.08 10.5C22.19 11.1 22.25 11.69 22.25 12.24C22.25 14.21 21.83 15.97 21.01 17.52C20.18 19.07 19 20.28 17.47 21.15C15.94 22.02 14.19 22.46 12.21 22.46C10.78 22.46 9.42 22.18 8.13 21.63C6.84 21.08 5.73 20.34 4.8 19.41C3.86 18.47 3.12 17.36 2.57 16.07C2.02 14.78 1.75 13.42 1.75 12C1.75 10.57 2.02 9.21 2.57 7.92C3.12 6.63 3.86 5.52 4.8 4.58C5.73 3.65 6.84 2.91 8.13 2.36C9.42 1.81 10.78 1.53 12.21 1.53C14.93 1.53 17.27 2.45 19.22 4.27L16.37 7.01C15.26 5.93 13.87 5.39 12.21 5.39C11.03 5.39 9.95 5.68 8.96 6.27C7.96 6.86 7.18 7.67 6.59 8.68C6.01 9.69 5.72 10.8 5.72 12C5.72 13.19 6.01 14.3 6.59 15.31C7.18 16.33 7.96 17.13 8.96 17.72C9.95 18.31 11.03 18.6 12.21 18.6C13 18.6 13.72 18.49 14.39 18.27C15.05 18.06 15.59 17.78 16.02 17.46C16.45 17.13 16.82 16.76 17.14 16.34C17.45 15.92 17.69 15.53 17.84 15.16C17.99 14.78 18.09 14.43 18.15 14.09L12.21 14.09L12.21 10.5Z" fill="currentColor" fill-opacity="1.000000" fill-rule="nonzero"/>
	</g>
</svg>
