<svg width="18.000000" height="19.000000" viewBox="0 0 18 19" fill="none" xmlns="http://www.w3.org/2000/svg" xmlns:xlink="http://www.w3.org/1999/xlink">
	<desc>
			Created with Pixso.
	</desc>
	<defs/>
	<path id="Vector" d="M2.26 0C1.96 -0.01 1.67 0.05 1.39 0.17C1.12 0.28 0.87 0.45 0.66 0.66C0.45 0.87 0.28 1.13 0.17 1.4C0.05 1.68 0 1.98 0 2.28C0 3.54 1.01 4.58 2.26 4.58C3.51 4.58 4.52 3.54 4.52 2.28C4.52 1.98 4.47 1.68 4.35 1.4C4.24 1.13 4.07 0.88 3.86 0.66C3.65 0.45 3.4 0.28 3.13 0.17C2.85 0.05 2.56 0 2.26 0ZM13.31 6.04C11.41 6.04 10.32 7.04 9.8 8.04L9.74 8.04L9.74 6.31L6 6.31L6 19L9.9 19L9.9 12.72C9.9 11.06 10.02 9.46 12.06 9.46C14.06 9.46 14.09 11.35 14.09 12.82L14.09 19L18 19L18 12.03C18 8.62 17.27 6.04 13.31 6.04ZM0.31 6.31L0.31 19L4.21 19L4.21 6.31L0.31 6.31Z" fill="#D7DDDF" fill-opacity="1.000000" fill-rule="nonzero"/>
</svg>
