<svg width="29.868805" height="32.000000" viewBox="0 0 29.8688 32" fill="none" xmlns="http://www.w3.org/2000/svg" xmlns:xlink="http://www.w3.org/1999/xlink">
	<desc>
			Created with Pixso.
	</desc>
	<defs/>
	<path id="Vector" d="M8.78 0C3.96 0 0 4.23 0 9.4L0 22.59C0 27.75 3.95 32 8.78 32L21.08 32C25.9 32 29.86 27.76 29.86 22.59L29.86 9.41C29.86 4.24 25.91 0 21.08 0L8.78 0ZM8.78 2.9L21.08 2.9C21.88 2.9 22.67 3.07 23.4 3.4C24.14 3.72 24.81 4.2 25.37 4.81C25.94 5.41 26.38 6.13 26.69 6.92C26.99 7.7 27.15 8.55 27.15 9.4L27.15 22.59C27.15 23.44 26.99 24.29 26.69 25.07C26.38 25.86 25.94 26.58 25.37 27.18C24.81 27.79 24.14 28.27 23.4 28.59C22.67 28.92 21.88 29.09 21.08 29.09L8.78 29.09C7.98 29.09 7.19 28.92 6.46 28.59C5.72 28.27 5.05 27.79 4.49 27.19C3.92 26.58 3.47 25.86 3.17 25.07C2.87 24.29 2.71 23.44 2.71 22.59L2.71 9.41C2.71 8.55 2.87 7.71 3.17 6.92C3.47 6.13 3.92 5.41 4.48 4.81C5.05 4.2 5.72 3.72 6.45 3.4C7.19 3.07 7.98 2.9 8.78 2.9ZM22.95 6.09C22.79 6.09 22.63 6.12 22.48 6.19C22.33 6.25 22.19 6.35 22.08 6.47C21.96 6.59 21.87 6.74 21.81 6.9C21.75 7.06 21.72 7.23 21.72 7.4C21.72 8.14 22.26 8.72 22.95 8.72C23.11 8.72 23.27 8.69 23.42 8.62C23.57 8.56 23.71 8.46 23.82 8.34C23.93 8.22 24.03 8.07 24.09 7.91C24.15 7.75 24.18 7.58 24.18 7.4C24.18 7.23 24.15 7.06 24.09 6.9C24.03 6.74 23.93 6.59 23.82 6.47C23.71 6.35 23.57 6.25 23.42 6.18C23.27 6.12 23.11 6.09 22.95 6.09ZM14.93 7.27C10.45 7.27 6.78 11.2 6.78 16C6.78 20.8 10.45 24.72 14.93 24.72C19.41 24.72 23.08 20.8 23.08 16C23.08 11.2 19.41 7.27 14.93 7.27ZM14.93 10.18C17.95 10.18 20.36 12.76 20.36 16C20.36 19.23 17.95 21.81 14.93 21.81C11.91 21.81 9.5 19.23 9.5 16C9.5 12.76 11.91 10.18 14.93 10.18Z" fill="#FFFFFF" fill-opacity="1.000000" fill-rule="nonzero"/>
</svg>
