<svg width="18.000000" height="19.000000" viewBox="0 0 18 19" fill="none" xmlns="http://www.w3.org/2000/svg" xmlns:xlink="http://www.w3.org/1999/xlink">
	<desc>
			Created with Pixso.
	</desc>
	<defs/>
	<path id="Vector" d="M5.29 0C2.38 0 0 2.51 0 5.58L0 13.41C0 16.48 2.38 19 5.29 19L12.7 19C15.61 19 18 16.48 18 13.41L18 5.58C18 2.52 15.61 0 12.7 0L5.29 0ZM5.29 1.72L12.7 1.72C13.18 1.72 13.66 1.82 14.1 2.01C14.55 2.21 14.95 2.49 15.29 2.85C15.63 3.21 15.9 3.64 16.08 4.1C16.27 4.57 16.36 5.07 16.36 5.58L16.36 13.41C16.36 13.92 16.27 14.42 16.08 14.89C15.9 15.35 15.63 15.78 15.29 16.14C14.95 16.5 14.55 16.78 14.1 16.98C13.66 17.17 13.18 17.27 12.7 17.27L5.29 17.27C4.81 17.27 4.33 17.17 3.89 16.98C3.44 16.78 3.04 16.5 2.7 16.14C2.36 15.78 2.09 15.35 1.91 14.89C1.72 14.42 1.63 13.92 1.63 13.41L1.63 5.58C1.63 5.08 1.72 4.57 1.91 4.1C2.09 3.64 2.36 3.21 2.7 2.85C3.04 2.49 3.44 2.21 3.89 2.01C4.33 1.82 4.81 1.72 5.29 1.72ZM13.83 3.61C13.73 3.61 13.63 3.63 13.54 3.67C13.45 3.71 13.37 3.77 13.3 3.84C13.23 3.91 13.18 4 13.14 4.09C13.1 4.19 13.09 4.29 13.09 4.39C13.09 4.83 13.41 5.18 13.83 5.18C13.92 5.18 14.02 5.16 14.11 5.12C14.2 5.08 14.28 5.02 14.35 4.95C14.42 4.88 14.48 4.79 14.51 4.69C14.55 4.6 14.57 4.5 14.57 4.39C14.57 4.29 14.55 4.19 14.51 4.09C14.48 4 14.42 3.91 14.35 3.84C14.28 3.77 14.2 3.71 14.11 3.67C14.02 3.63 13.92 3.61 13.83 3.61ZM9 4.31C6.29 4.31 4.09 6.64 4.09 9.5C4.09 12.35 6.29 14.68 9 14.68C11.7 14.68 13.9 12.35 13.9 9.5C13.9 6.64 11.7 4.31 9 4.31ZM9 6.04C10.81 6.04 12.27 7.58 12.27 9.5C12.27 11.41 10.81 12.95 9 12.95C7.18 12.95 5.72 11.41 5.72 9.5C5.72 7.58 7.18 6.04 9 6.04Z" fill="#D7DDDF" fill-opacity="1.000000" fill-rule="nonzero"/>
</svg>
