<svg width="30.000031" height="18.840088" viewBox="0 0 30 18.8401" fill="none" xmlns="http://www.w3.org/2000/svg" xmlns:xlink="http://www.w3.org/1999/xlink">
	<desc>
			Created with Pixso.
	</desc>
	<defs/>
	<path id="Vector" d="M1.39 0C0.62 0 0 0.62 0 1.39L0 17.44C0 18.21 0.62 18.84 1.39 18.84L28.6 18.84C29.37 18.84 30 18.21 30 17.44L30 1.39C30 0.62 29.37 0 28.6 0L1.39 0L1.39 0ZM9.83 2.26C11.54 2.26 13.12 2.86 14.35 3.85C13.31 4.78 12.54 6 12.16 7.39L12.76 7.39C13.11 6.25 13.75 5.23 14.59 4.42C15.44 5.23 16.08 6.25 16.43 7.39L17.04 7.39C16.65 6.01 15.88 4.8 14.84 3.87C16.08 2.87 17.66 2.26 19.37 2.26C23.34 2.26 26.56 5.48 26.56 9.45C26.56 13.42 23.34 16.64 19.37 16.64C17.63 16.64 16.02 16.01 14.78 14.97C15.89 14 16.71 12.71 17.09 11.23L16.5 11.23C16.17 12.47 15.5 13.57 14.59 14.43C13.69 13.57 13.02 12.47 12.69 11.23L12.13 11.23C12.51 12.68 13.32 13.97 14.41 14.93C13.17 15.95 11.57 16.57 9.83 16.57C5.86 16.57 2.65 13.37 2.65 9.41C2.65 5.46 5.86 2.26 9.83 2.26ZM18.84 7.32C17.97 7.32 17.13 8.07 17.13 9.49C17.13 10.43 17.59 11.05 18.48 11.05C18.73 11.05 19.13 10.94 19.13 10.94L19.27 10.12C19.27 10.12 18.9 10.31 18.65 10.31C18.12 10.31 17.9 9.9 17.9 9.46C17.9 8.57 18.36 8.08 18.87 8.08C19.25 8.08 19.56 8.3 19.56 8.3L19.68 7.5C19.68 7.5 19.22 7.32 18.84 7.32L18.84 7.32ZM26.1 7.38L25.34 7.39L25.18 8.37C25.18 8.37 24.9 7.99 24.46 7.99C23.77 7.99 23.2 8.81 23.2 9.74C23.2 10.35 23.51 10.94 24.13 10.94C24.58 10.94 24.83 10.63 24.83 10.63L24.79 10.9L25.52 10.9L26.1 7.38ZM4.59 7.39L3.99 10.92L4.71 10.92L5.17 8.26L5.23 10.92L5.75 10.92L6.71 8.26L6.28 10.92L7.05 10.92L7.64 7.39L6.46 7.39L5.72 9.56L5.68 7.39L4.59 7.39L4.59 7.39ZM12.12 7.62C12.1 7.64 11.68 10.06 11.68 10.35C11.68 10.79 11.93 10.99 12.27 10.98C12.52 10.98 12.71 10.92 12.8 10.89C12.81 10.89 12.82 10.89 12.82 10.89L12.92 10.26C12.87 10.26 12.79 10.28 12.73 10.28C12.47 10.28 12.44 10.14 12.46 10.04L12.67 8.75L13.06 8.75L13.15 8.06L12.78 8.06L12.86 7.62L12.12 7.62ZM20.83 7.98C20.33 7.98 19.94 8.14 19.94 8.14L19.84 8.79C19.84 8.79 20.16 8.66 20.64 8.66C20.91 8.66 21.11 8.69 21.11 8.92C21.11 9.06 21.09 9.11 21.09 9.11C21.09 9.11 20.87 9.09 20.77 9.09C20.14 9.09 19.47 9.37 19.47 10.2C19.47 10.86 19.91 11.01 20.18 11.01C20.7 11.01 20.92 10.67 20.93 10.67L20.91 10.95L21.55 10.95L21.84 8.88C21.84 8.01 21.09 7.98 20.83 7.98L20.83 7.98ZM8.72 7.98C8.21 7.98 7.82 8.15 7.82 8.15L7.72 8.79C7.72 8.79 8.04 8.66 8.52 8.66C8.79 8.66 8.99 8.69 8.99 8.92C8.99 9.06 8.97 9.11 8.97 9.11C8.97 9.11 8.75 9.09 8.65 9.09C8.02 9.09 7.35 9.37 7.35 10.21C7.35 10.86 7.79 11.02 8.06 11.02C8.58 11.02 8.8 10.67 8.81 10.67L8.79 10.96L9.44 10.96L9.73 8.89C9.73 8.01 8.98 7.98 8.72 7.98L8.72 7.98ZM11.01 7.98C10.46 7.98 9.91 8.2 9.91 8.95C9.91 9.8 10.83 9.71 10.83 10.07C10.83 10.3 10.58 10.32 10.38 10.32C10.04 10.32 9.73 10.21 9.73 10.21L9.63 10.86C9.65 10.86 9.84 10.95 10.45 10.95C10.62 10.95 11.56 10.99 11.56 10.01C11.56 9.09 10.69 9.27 10.69 8.9C10.69 8.72 10.83 8.66 11.09 8.66C11.19 8.66 11.59 8.69 11.59 8.69L11.68 8.04C11.68 8.04 11.43 7.98 11.01 7.98L11.01 7.98ZM14.4 7.98C13.64 7.98 13.09 8.79 13.09 9.71C13.09 10.76 13.78 11.02 14.38 11.02C14.93 11.02 15.17 10.89 15.17 10.89L15.3 10.17C15.3 10.17 14.89 10.36 14.51 10.36C13.7 10.36 13.84 9.76 13.84 9.76L15.37 9.76C15.37 9.76 15.47 9.27 15.47 9.07C15.47 8.58 15.22 7.98 14.4 7.98L14.4 7.98ZM17.13 8.01C16.79 8.01 16.53 8.47 16.53 8.47L16.6 8.05L15.9 8.05L15.42 10.94L16.2 10.94C16.42 9.71 16.46 8.7 16.99 8.89C17.08 8.41 17.17 8.23 17.27 8.02C17.27 8.02 17.22 8.01 17.13 8.01L17.13 8.01ZM23.44 8.01C23.1 8.01 22.85 8.47 22.85 8.47L22.91 8.05L22.21 8.05L21.74 10.94L22.51 10.94C22.73 9.71 22.78 8.7 23.3 8.89C23.39 8.41 23.48 8.23 23.58 8.02C23.58 8.02 23.54 8.01 23.44 8.01L23.44 8.01ZM14.39 8.63C14.82 8.63 14.74 9.12 14.74 9.16L13.9 9.16C13.9 9.11 13.98 8.63 14.39 8.63L14.39 8.63ZM24.58 8.69C24.85 8.69 24.99 8.87 24.99 9.31C24.99 9.7 24.79 10.22 24.38 10.22C24.11 10.22 23.98 10 23.98 9.65C23.98 9.07 24.24 8.69 24.58 8.69L24.58 8.69ZM20.83 9.67C20.94 9.67 20.97 9.69 20.99 9.69C20.98 9.69 20.98 9.69 20.99 9.69C21.01 9.82 20.92 10.43 20.47 10.43C20.24 10.43 20.18 10.24 20.18 10.14C20.18 9.93 20.29 9.67 20.83 9.67ZM8.72 9.68C8.84 9.68 8.86 9.69 8.88 9.7C8.89 9.82 8.8 10.43 8.35 10.43C8.12 10.43 8.06 10.25 8.06 10.14C8.06 9.93 8.17 9.68 8.72 9.68Z" fill="#D7DDDF" fill-opacity="1.000000" fill-rule="nonzero"/>
</svg>
