<svg width="29.000000" height="19.000000" viewBox="0 0 29 19" fill="none" xmlns="http://www.w3.org/2000/svg" xmlns:xlink="http://www.w3.org/1999/xlink">
	<desc>
			Created with Pixso.
	</desc>
	<defs/>
	<path id="Vector" d="M27.06 19L1.93 19C1.42 19 0.92 18.79 0.56 18.44C0.2 18.08 0 17.6 0 17.1L0 1.89C0 1.39 0.2 0.91 0.56 0.55C0.92 0.2 1.42 0 1.93 0L27.06 0C27.57 0 28.07 0.2 28.43 0.55C28.79 0.91 29 1.39 29 1.89L29 17.1C29 17.6 28.79 18.08 28.43 18.44C28.07 18.79 27.57 19 27.06 19ZM11.3 8.17C11.28 8.17 11.25 8.17 11.24 8.18C11.22 8.19 11.2 8.21 11.18 8.22C11.15 8.26 11.13 8.3 11.13 8.34C11.13 8.36 11.21 8.6 11.38 9.08L11.75 10.13L11.92 10.62C12.11 11.17 12.21 11.46 12.22 11.5C11.84 11.95 11.5 12.44 11.2 12.94L11.17 13L11.17 13.02C11.17 13.1 11.23 13.16 11.32 13.16L11.34 13.16L11.34 13.16L12.32 13.16C12.36 13.16 12.41 13.15 12.45 13.13C12.49 13.11 12.52 13.07 12.55 13.04L12.55 13.03L15.8 8.43C15.81 8.41 15.82 8.38 15.82 8.35L15.82 8.34L15.82 8.34C15.82 8.3 15.8 8.25 15.77 8.22C15.76 8.2 15.74 8.19 15.72 8.18C15.7 8.17 15.68 8.17 15.66 8.17L14.67 8.17C14.63 8.17 14.58 8.18 14.54 8.2C14.5 8.22 14.47 8.25 14.45 8.29L14.45 8.29L13.09 10.24L12.53 8.37C12.52 8.31 12.48 8.26 12.44 8.22C12.39 8.19 12.33 8.17 12.27 8.17L12.25 8.17L12.25 8.17L11.3 8.17ZM22.56 8.08L22.54 8.08C21.93 8.08 21.38 8.34 21 8.75L21 8.76C20.58 9.18 20.35 9.74 20.35 10.33L20.35 10.35L20.35 10.35C20.35 10.37 20.35 10.4 20.35 10.42C20.35 10.85 20.52 11.24 20.79 11.52L20.79 11.52C20.95 11.67 21.13 11.79 21.34 11.86C21.54 11.94 21.76 11.97 21.98 11.96L21.97 11.96C22.24 11.96 22.5 11.9 22.74 11.81L22.72 11.81C22.96 11.72 23.16 11.59 23.32 11.41L23.32 11.41C23.32 11.45 23.31 11.49 23.3 11.53L23.3 11.52C23.28 11.57 23.27 11.62 23.27 11.67L23.27 11.67C23.27 11.8 23.33 11.87 23.44 11.87L24.32 11.87C24.35 11.87 24.39 11.87 24.42 11.86C24.45 11.85 24.48 11.83 24.51 11.81C24.53 11.79 24.55 11.76 24.57 11.73C24.59 11.7 24.59 11.67 24.6 11.63L24.6 11.63L25.12 8.37C25.12 8.34 25.12 8.32 25.12 8.29C25.11 8.27 25.1 8.25 25.08 8.23C25.07 8.21 25.05 8.19 25.03 8.18C25 8.17 24.98 8.16 24.95 8.16L23.99 8.16C23.87 8.16 23.79 8.3 23.77 8.58C23.63 8.4 23.44 8.26 23.23 8.17C23.01 8.08 22.78 8.05 22.55 8.08L22.56 8.08L22.56 8.08ZM8.09 8.08L8.07 8.08C7.46 8.08 6.91 8.34 6.53 8.75L6.53 8.76C6.11 9.18 5.88 9.74 5.88 10.33L5.88 10.35L5.88 10.35C5.87 10.56 5.91 10.78 5.98 10.98C6.06 11.18 6.18 11.37 6.33 11.52L6.33 11.52C6.61 11.79 7 11.96 7.43 11.96L7.51 11.96L7.5 11.96C7.77 11.96 8.02 11.9 8.26 11.8L8.24 11.81C8.48 11.72 8.69 11.58 8.85 11.41L8.85 11.41C8.82 11.49 8.81 11.58 8.8 11.67L8.8 11.67C8.8 11.8 8.86 11.87 8.97 11.87L9.85 11.87C9.88 11.87 9.92 11.87 9.95 11.86C9.98 11.85 10.01 11.83 10.04 11.81C10.06 11.79 10.09 11.76 10.1 11.73C10.12 11.7 10.13 11.67 10.13 11.63L10.13 11.63L10.65 8.37C10.66 8.34 10.65 8.32 10.65 8.29C10.64 8.27 10.63 8.25 10.61 8.23C10.6 8.21 10.58 8.19 10.56 8.18C10.53 8.17 10.51 8.16 10.49 8.16L9.52 8.16C9.4 8.16 9.32 8.3 9.3 8.58C9.16 8.4 8.97 8.26 8.76 8.18C8.54 8.09 8.31 8.06 8.08 8.08L8.09 8.08L8.09 8.08ZM26.27 6.33L26.25 6.33C26.21 6.33 26.18 6.34 26.15 6.37C26.12 6.39 26.1 6.43 26.1 6.47L26.1 6.47L25.27 11.67C25.26 11.7 25.26 11.73 25.27 11.75C25.28 11.78 25.29 11.8 25.31 11.82C25.32 11.83 25.34 11.85 25.37 11.86C25.39 11.87 25.41 11.87 25.43 11.87L26.28 11.87L26.31 11.87C26.37 11.87 26.43 11.85 26.48 11.81C26.52 11.76 26.55 11.7 26.55 11.64L26.55 11.64L27.37 6.52L27.37 6.5C27.37 6.45 27.36 6.41 27.33 6.38L27.33 6.38C27.32 6.36 27.3 6.35 27.28 6.34C27.26 6.33 27.24 6.33 27.22 6.33L27.21 6.33L27.21 6.33L26.27 6.33ZM16.86 6.33C16.83 6.32 16.8 6.33 16.76 6.34C16.73 6.35 16.7 6.36 16.67 6.39C16.64 6.41 16.62 6.43 16.61 6.47C16.59 6.5 16.59 6.53 16.58 6.57L15.76 11.67C15.75 11.7 15.75 11.72 15.76 11.75C15.77 11.77 15.78 11.79 15.8 11.81C15.81 11.83 15.83 11.85 15.85 11.86C15.87 11.87 15.9 11.87 15.92 11.87L16.97 11.87C17.02 11.87 17.06 11.86 17.1 11.83C17.14 11.8 17.16 11.76 17.17 11.71L17.17 11.71L17.4 10.26C17.41 10.2 17.44 10.14 17.49 10.1L17.49 10.1C17.55 10.05 17.61 10.02 17.68 10.02L17.69 10.02C17.75 10 17.83 10 17.9 10L17.9 10C17.97 10 18.05 10 18.14 10.01C18.25 10.02 18.35 10.03 18.45 10.02C19.04 10.03 19.61 9.81 20.04 9.41L20.04 9.41C20.26 9.19 20.42 8.92 20.53 8.63C20.64 8.34 20.68 8.03 20.67 7.72L20.67 7.73C20.68 7.53 20.65 7.32 20.56 7.13C20.48 6.95 20.34 6.78 20.18 6.66L20.18 6.66C19.79 6.42 19.34 6.3 18.89 6.33L18.89 6.33L16.86 6.33ZM2.38 6.33C2.35 6.32 2.31 6.33 2.28 6.34C2.25 6.35 2.22 6.37 2.19 6.39C2.17 6.41 2.15 6.44 2.13 6.47C2.12 6.5 2.11 6.53 2.11 6.56L2.11 6.57L1.28 11.67C1.28 11.7 1.28 11.72 1.29 11.75C1.29 11.77 1.31 11.79 1.32 11.81C1.34 11.83 1.35 11.85 1.38 11.86C1.4 11.87 1.42 11.87 1.45 11.87L2.42 11.87C2.45 11.88 2.49 11.88 2.52 11.87C2.55 11.86 2.58 11.84 2.61 11.82C2.64 11.8 2.66 11.77 2.67 11.74C2.69 11.71 2.7 11.67 2.7 11.64L2.93 10.26C2.93 10.2 2.97 10.14 3.02 10.1L3.02 10.1C3.07 10.06 3.14 10.03 3.21 10.02L3.21 10.02C3.28 10.01 3.35 10 3.43 10L3.43 10C3.49 10 3.57 10 3.67 10.01C3.77 10.02 3.87 10.03 3.98 10.03C4.59 10.03 5.15 9.8 5.57 9.41L5.57 9.42C5.78 9.19 5.95 8.93 6.06 8.63C6.16 8.34 6.21 8.04 6.19 7.73L6.19 7.73C6.21 7.53 6.17 7.32 6.09 7.14C6 6.95 5.87 6.79 5.7 6.66L5.7 6.66C5.32 6.42 4.87 6.31 4.42 6.33L4.42 6.33L2.38 6.33ZM22.51 10.95L22.47 10.95C22.26 10.95 22.06 10.88 21.9 10.75L21.91 10.75C21.83 10.68 21.78 10.6 21.74 10.51C21.7 10.42 21.68 10.33 21.68 10.23L21.68 10.2L21.68 10.17C21.68 9.88 21.8 9.61 22 9.41C22.19 9.22 22.46 9.1 22.76 9.1L22.79 9.1L22.79 9.1L22.81 9.1C23.03 9.1 23.23 9.18 23.38 9.3L23.38 9.3C23.45 9.37 23.51 9.45 23.55 9.55C23.59 9.64 23.61 9.74 23.61 9.84L23.61 9.87L23.61 9.87L23.61 9.89C23.61 10.18 23.49 10.45 23.29 10.64C23.19 10.74 23.07 10.81 22.94 10.87C22.81 10.92 22.67 10.95 22.53 10.95L22.51 10.95L22.51 10.95L22.51 10.95ZM8.02 10.95L7.98 10.95C7.77 10.95 7.58 10.87 7.43 10.75L7.43 10.75C7.36 10.68 7.3 10.6 7.26 10.51C7.23 10.42 7.21 10.33 7.21 10.23L7.21 10.2L7.21 10.17C7.21 9.88 7.33 9.61 7.53 9.41C7.72 9.22 7.99 9.1 8.29 9.1L8.32 9.1L8.32 9.1L8.34 9.1C8.56 9.1 8.76 9.18 8.91 9.3L8.91 9.3C8.98 9.37 9.04 9.45 9.08 9.55C9.12 9.64 9.14 9.74 9.14 9.84L9.14 9.87L9.14 9.87L9.14 9.9C9.14 10.19 9.02 10.46 8.82 10.64C8.61 10.84 8.34 10.95 8.05 10.95L8.02 10.95L8.02 10.95L8.02 10.95ZM17.61 8.92L17.83 7.58C17.83 7.56 17.84 7.54 17.85 7.53C17.86 7.51 17.87 7.49 17.88 7.48C17.9 7.47 17.92 7.46 17.94 7.45C17.96 7.45 17.98 7.44 18 7.45L18 7.45L18.23 7.45L18.27 7.44C18.41 7.44 18.55 7.45 18.69 7.47L18.67 7.47C18.8 7.49 18.9 7.55 18.99 7.63C19.04 7.67 19.08 7.73 19.1 7.79C19.13 7.85 19.14 7.91 19.14 7.98L19.14 8.01L19.14 8.01C19.16 8.14 19.14 8.27 19.09 8.4C19.05 8.52 18.97 8.63 18.86 8.72L18.86 8.72C18.61 8.87 18.31 8.93 18.02 8.91L18.02 8.91L17.62 8.92L17.61 8.92ZM3.13 8.92L3.35 7.58C3.35 7.56 3.35 7.54 3.36 7.53C3.37 7.51 3.39 7.49 3.4 7.48C3.42 7.47 3.43 7.46 3.45 7.45C3.47 7.45 3.49 7.44 3.51 7.45L3.51 7.45L3.75 7.45C4.01 7.43 4.27 7.48 4.5 7.59L4.49 7.59C4.65 7.68 4.7 7.89 4.65 8.2C4.64 8.31 4.61 8.42 4.55 8.52C4.5 8.62 4.42 8.71 4.32 8.77L4.32 8.77C3.93 8.91 3.52 8.96 3.12 8.92L3.13 8.92Z" fill="#D7DDDF" fill-opacity="1.000000" fill-rule="nonzero"/>
</svg>
