<svg width="31.878571" height="15.620850" viewBox="0 0 31.8786 15.6208" fill="none" xmlns="http://www.w3.org/2000/svg" xmlns:xlink="http://www.w3.org/1999/xlink">
	<desc>
			Created with Pixso.
	</desc>
	<defs/>
	<path id="Vector" d="M31.37 0.76L23.47 0.76L31.37 0.76ZM19.18 2.19L16.75 5.53C16.37 5.18 15.92 4.92 15.43 4.79C14.93 4.65 14.41 4.63 13.91 4.75C13.41 4.86 12.94 5.09 12.55 5.42C12.16 5.75 11.85 6.17 11.66 6.65C11.47 7.13 11.4 7.64 11.46 8.15C11.51 8.66 11.69 9.15 11.98 9.58C12.27 10 12.65 10.35 13.11 10.59C13.56 10.83 14.06 10.96 14.58 10.96C15.48 11.04 16.39 10.77 17.09 10.2C17.94 9.54 21.78 4.27 23.47 0.77" stroke="#D7DDDF" stroke-opacity="1.000000" stroke-width="1.000000" stroke-linejoin="round" stroke-linecap="round"/>
	<path id="Vector" d="M31.37 0.76C24.51 11.17 19.6 15.2 14.86 15.11C10.12 15.03 7.29 11.85 7.29 7.81C7.28 6.44 7.67 5.09 8.39 3.92C9.12 2.76 10.16 1.82 11.4 1.22C12.64 0.62 14.02 0.39 15.38 0.54C16.75 0.69 18.04 1.23 19.12 2.09M7.25 0.72L0.5 0.76L4.3 7.07C4.45 4.66 5.5 2.39 7.25 0.72ZM0.5 0.76L4.3 7.09" stroke="#D7DDDF" stroke-opacity="1.000000" stroke-width="1.000000" stroke-linejoin="round" stroke-linecap="round"/>
</svg>
