<svg width="14.591675" height="14.591553" viewBox="0 0 14.5917 14.5916" fill="none" xmlns="http://www.w3.org/2000/svg" xmlns:xlink="http://www.w3.org/1999/xlink">
	<desc>
			Created with Pixso.
	</desc>
	<defs/>
	<path id="Vector" d="M14.36 13.12L11.06 9.81C11.85 8.75 12.28 7.46 12.28 6.14C12.28 2.75 9.52 0 6.14 0C2.75 0 0 2.75 0 6.14C0 9.52 2.75 12.28 6.14 12.28C7.46 12.28 8.75 11.85 9.81 11.06L13.12 14.36C13.29 14.51 13.51 14.59 13.73 14.59C13.96 14.58 14.17 14.49 14.33 14.33C14.49 14.17 14.58 13.96 14.59 13.73C14.59 13.51 14.51 13.29 14.36 13.12ZM1.75 6.14C1.75 5.27 2.01 4.42 2.49 3.7C2.97 2.98 3.66 2.42 4.46 2.08C5.26 1.75 6.14 1.66 6.99 1.83C7.84 2 8.63 2.42 9.24 3.04C9.85 3.65 10.27 4.43 10.44 5.28C10.61 6.13 10.52 7.01 10.19 7.82C9.86 8.62 9.3 9.3 8.58 9.79C7.85 10.27 7.01 10.53 6.14 10.53C4.97 10.52 3.86 10.06 3.04 9.24C2.21 8.42 1.75 7.3 1.75 6.14Z" fill="#272727" fill-opacity="1.000000" fill-rule="nonzero"/>
</svg>
