<svg width="27.484009" height="27.000122" viewBox="0 0 27.484 27.0001" fill="none" xmlns="http://www.w3.org/2000/svg" xmlns:xlink="http://www.w3.org/1999/xlink">
	<desc>
			Created with Pixso.
	</desc>
	<defs/>
	<path id="Vector" d="M9.48 13.5L12.32 16.27L17.99 10.72" stroke="#72AEC8" stroke-opacity="1.000000" stroke-width="2.000000" stroke-linejoin="round" stroke-linecap="round"/>
	<path id="Vector" d="M25.79 5.16C26.43 7.3 26.63 9.55 26.36 11.77C26.1 13.99 25.39 16.14 24.27 18.08C23.14 20.02 21.63 21.72 19.82 23.08C18.01 24.44 15.94 25.43 13.74 26C11.53 25.43 9.46 24.44 7.65 23.08C5.84 21.72 4.33 20.02 3.21 18.08C2.08 16.14 1.37 13.99 1.11 11.77C0.85 9.55 1.05 7.3 1.69 5.16C6.1 5.36 10.43 3.87 13.74 1C17.05 3.87 21.37 5.36 25.79 5.16Z" stroke="#72AEC8" stroke-opacity="1.000000" stroke-width="2.000000" stroke-linejoin="round"/>
</svg>
