<svg width="15.936279" height="14.877075" viewBox="0 0 15.9363 14.8771" fill="none" xmlns="http://www.w3.org/2000/svg" xmlns:xlink="http://www.w3.org/1999/xlink">
	<desc>
			Created with Pixso.
	</desc>
	<defs/>
	<path id="Vector" d="M12.54 14.87C12.43 14.87 12.32 14.84 12.23 14.77L7.96 11.68L3.69 14.77C3.6 14.84 3.49 14.87 3.38 14.87C3.27 14.87 3.16 14.84 3.07 14.77C2.97 14.7 2.91 14.61 2.87 14.5C2.84 14.39 2.84 14.28 2.88 14.17L4.54 9.24L0.23 6.28C0.13 6.21 0.06 6.12 0.02 6.01C-0.01 5.91 -0.01 5.79 0.02 5.68C0.05 5.57 0.12 5.48 0.21 5.41C0.3 5.34 0.41 5.31 0.52 5.31L5.85 5.31L7.46 0.36C7.49 0.26 7.56 0.16 7.65 0.1C7.74 0.03 7.85 0 7.96 0C8.07 0 8.18 0.03 8.27 0.1C8.37 0.16 8.43 0.26 8.47 0.36L10.07 5.31L15.4 5.31C15.51 5.31 15.62 5.35 15.72 5.41C15.81 5.48 15.87 5.58 15.91 5.68C15.94 5.79 15.94 5.91 15.9 6.02C15.86 6.12 15.79 6.22 15.7 6.28L11.38 9.24L13.05 14.17C13.07 14.25 13.08 14.33 13.07 14.42C13.06 14.5 13.02 14.58 12.98 14.65C12.93 14.72 12.86 14.77 12.79 14.81C12.71 14.85 12.63 14.87 12.54 14.87Z" fill="#72AEC8" fill-opacity="1.000000" fill-rule="nonzero"/>
</svg>
