<svg width="30.000000" height="18.840088" viewBox="0 0 30 18.8401" fill="none" xmlns="http://www.w3.org/2000/svg" xmlns:xlink="http://www.w3.org/1999/xlink">
	<desc>
			Created with Pixso.
	</desc>
	<defs/>
	<path id="Vector" d="M1.2 0C0.53 0 0 0.53 0 1.19L0 17.63C0 18.3 0.53 18.84 1.2 18.84L28.8 18.84C29.46 18.84 30 18.3 30 17.63L30 1.19C30 0.53 29.46 0 28.8 0L1.2 0ZM17.91 5.61C18.64 5.61 19.23 5.77 19.6 5.92L19.35 7.53L19.18 7.44C18.83 7.29 18.38 7.15 17.77 7.16C17.03 7.16 16.69 7.48 16.69 7.79C16.68 8.14 17.09 8.37 17.75 8.71C18.83 9.24 19.33 9.88 19.33 10.72C19.31 12.26 18.03 13.25 16.05 13.25C15.2 13.24 14.39 13.06 13.95 12.86L14.21 11.2L14.46 11.32C15.08 11.59 15.48 11.7 16.23 11.7C16.77 11.7 17.35 11.48 17.36 10.98C17.36 10.66 17.11 10.43 16.38 10.06C15.67 9.71 14.72 9.12 14.73 8.05C14.74 6.61 16.05 5.61 17.91 5.61ZM2.65 5.85L5.69 5.85C6.1 5.86 6.43 5.99 6.54 6.44L7.2 9.82C7.2 9.82 7.2 9.82 7.2 9.82L7.39 10.83L9.24 5.85L11.24 5.85L8.27 13.15L6.27 13.15L4.69 7.26C5.63 7.76 6.44 8.34 6.9 9.13C6.78 8.88 6.62 8.6 6.42 8.32C6.18 7.99 5.68 7.57 5.46 7.39C4.72 6.76 3.71 6.26 2.62 5.99L2.65 5.85ZM12.03 5.85L13.98 5.85L12.76 13.15L10.81 13.15L12.03 5.85ZM23.06 5.85L24.54 5.85L26.09 13.15L24.31 13.15C24.31 13.15 24.14 12.31 24.08 12.05C23.8 12.05 21.85 12.05 21.63 12.05C21.56 12.25 21.23 13.15 21.23 13.15L19.22 13.15L22.06 6.46C22.26 5.98 22.6 5.85 23.06 5.85ZM23.21 7.81C23.11 8.09 22.94 8.52 22.95 8.5C22.95 8.5 22.35 10.11 22.2 10.52L23.78 10.52C23.63 9.83 23.48 9.13 23.34 8.44L23.21 7.81L23.21 7.81Z" fill="#D7DDDF" fill-opacity="1.000000" fill-rule="nonzero"/>
</svg>
