<svg width="22.000000" height="15.000000" viewBox="0 0 22 15" fill="none" xmlns="http://www.w3.org/2000/svg" xmlns:xlink="http://www.w3.org/1999/xlink">
	<desc>
			Created with Pixso.
	</desc>
	<defs/>
	<path id="Vector" d="M21.53 2.34C21.41 1.88 21.16 1.47 20.82 1.14C20.48 0.81 20.06 0.57 19.59 0.45C17.88 0 11 0 11 0C11 0 4.11 0 2.4 0.45C1.93 0.57 1.51 0.81 1.17 1.14C0.83 1.47 0.58 1.88 0.46 2.34C0.14 4.04 -0.02 5.77 0 7.5C-0.02 9.22 0.14 10.95 0.46 12.65C0.58 13.11 0.83 13.52 1.17 13.85C1.51 14.18 1.93 14.42 2.4 14.54C4.11 15 11 15 11 15C11 15 17.88 15 19.59 14.54C20.06 14.42 20.48 14.18 20.82 13.85C21.16 13.52 21.41 13.11 21.53 12.65C21.85 10.95 22.01 9.22 21.99 7.5C22.01 5.77 21.85 4.04 21.53 2.34ZM8.8 10.71L8.8 4.28L14.51 7.5L8.8 10.71Z" fill="#D7DDDF" fill-opacity="1.000000" fill-rule="nonzero"/>
</svg>
